Patient4_TMGait_0pt7_02_right_35_EMG.mot
version=1
nRows=33
nColumns=33
inDegrees=no
endheader
time	1LAddLong	2LGlutMax	3LGlutMed	4LIliopsoas	5LSemiMemb	6LBicFemLong	7LRecFem	8LVastMed	9LVastLat	10LGasMed	11LTibAnt	12lTibPost	13LPeroneusLong	14LSol	15LExtDigLong	16LFlexDigLong	17RAddLong	18RGlutMax	19RGlutMed	20RIliopsoas	21RSemiMemb	22RBicFemLong	23RRecFem	24RVastMed	25RVastLat	26RGasMed	27RTibAnt	28RTibPost	29RPeroneusLong	30RSol	31RExtDigLong	32RFlexDigLong
39.5	0.009613	0.049438	0.12848	0.010834	0.003662	-0.22751	0.008087	0.006409	0.069733	-0.49347	-0.017242	-0.10544	0.24551	-0.23743	-0.064392	0.049286	0.019073	0.003204	0.36316	-0.081024	0.056152	-0.004425	0.11444	-0.080261	0.018616	0.008545	0.26611	-0.003204	-0.11215	0.093994	-0.005951	-0.010681
39.501	0.011292	0.061951	0.085449	0.012512	-0.001221	-0.064392	-0.047302	0.00351	0.094147	-0.103	0.001068	0.012054	-0.080566	-0.19058	-0.047302	0.1619	0.02533	-0.005798	0.43976	0.037689	0.035706	-0.011597	0.10071	-0.16617	0.002594	0.005341	0.079498	0.001984	0.024414	0.070801	-0.002899	-0.010681
39.502	0.006256	0.02121	-0.02182	0	0.018768	-0.31876	-0.11765	0.012054	0.10315	0.10696	0.00885	0.004272	-0.084381	-0.32638	-0.08728	-0.22659	0.075684	-0.10376	0.15808	0.12054	0.0177	-0.035095	0.051575	-0.16937	-0.013428	0.001221	0.12848	0.006104	0.028229	0.012512	0.000153	-0.006409
39.503	0.007172	0.036469	-0.018005	0.003052	0.066681	-0.18814	-0.12299	0.006256	0.066986	0.21805	0.009155	0.097504	0.006866	-0.17258	-0.052185	0.18051	0.04425	-0.068817	0.2475	0.13626	0.009613	-0.017395	0.13794	-0.1355	-0.018311	0.002899	0.053406	0.001678	0.007172	0.009003	0.010223	-0.003052
39.504	0.007477	0.069733	-0.029907	0.003967	0.075531	0.16907	-0.040131	-0.003815	0.06424	0.15762	0.009003	-0.019684	0.11871	0.32715	-0.022583	0.18097	-0.010681	-0.02655	0.40482	0.07843	-0.003967	-0.021973	0.1265	-0.084229	0.000916	0.00885	-0.029755	0.003815	0.038605	-0.014648	-0.001221	-0.005951
39.505	0.009613	0.049896	0.027313	0.012054	0.047913	0.32211	0.051422	0.006714	0.033875	-0.12787	0.018311	-0.039368	0.028381	0.49515	-0.013428	0.058746	-0.046997	0.015259	0.45487	0.017395	-0.013275	-0.000458	0.071716	-0.007782	0.009155	0.017395	-0.32501	0.005188	0.015717	-0.043945	-0.001984	-0.000305
39.506	0.014191	0.035095	0.10513	0.019836	0.018616	0.35828	0.022278	0.012207	0.020599	-0.15961	0.02121	-0.004425	0.03952	0.24155	-0.019379	0.010223	-0.084839	0.046234	0.44571	-0.13168	-0.006561	-0.025482	0.066376	0.000305	0.010529	0.020142	-0.52094	0.003815	-0.02121	0.057068	-0.002594	-0.006866
39.507	0.006409	0.02121	0.15015	0.013428	0.016479	0.242	0.005951	-0.000916	0.085602	0.043488	0.010529	0.002747	-0.13245	0.25116	0.011292	-0.035553	-0.064392	0.046387	0.46158	-0.31281	-0.000916	-0.0354	0.11475	-0.016327	-0.005341	0.015259	-0.39703	0.006409	0.063477	0.060272	-0.002899	-0.009766
39.508	-0.000916	0.032501	0.16647	0.009155	0.02243	0.26169	0.015411	0.015106	0.093689	0.29022	0.019379	-0.072021	-0.15778	-0.17059	0.027771	0.017395	-0.056305	0.067596	0.32974	-0.33798	0.02182	-0.043182	0.12695	0	0.005188	0.012512	-0.073242	0.006104	0.0354	0.082245	-0.004578	-0.011292
39.509	-0.004425	0.11414	0.20813	-0.002289	-0.013885	0.11917	0.003204	0.021057	0.13382	0.29755	-0.005798	-0.18784	-0.005951	-0.34393	0.041504	0.023346	0.006714	0.071869	0.31067	-0.18921	0.024872	-0.049744	0.17853	0.004425	-0.02655	0.003357	-0.014191	0.002136	-0.01297	0.081329	-0.003967	-0.005493
39.51	-0.010529	0.063782	0.15854	-0.005035	-0.075378	-0.36102	-0.022888	0.020294	0.18341	0.13718	-0.002594	0.45807	0.032501	0.14908	0.003357	0.002441	0.0354	0.016327	0.37125	-0.017242	0.04837	-0.045471	0.24735	0.034943	-0.013123	0.006104	0.050659	0.006714	0.001373	-0.011749	-0.005188	-0.004883
39.511	-0.017395	0.007629	0.098267	0.000153	-0.061493	-0.33997	-0.055084	0.015106	0.17349	0.02655	-0.00824	0.26154	0.003204	0.60944	0.015717	-0.061951	0.035858	0.020905	0.37582	0.049438	0.048218	-0.020599	0.30563	-0.006866	0.007324	0.017395	0.17227	0.007629	-0.061188	-0.099487	-0.005646	-0.005188
39.512	-0.016022	0.025177	0.082245	0.003967	-0.011444	-0.21271	-0.03479	0.005035	0.13321	-0.25848	0.011444	-0.25681	0.05249	0.63049	0.050201	-0.26581	0.029144	0.036316	0.34149	0.061646	0.045166	-0.016174	0.36087	-0.02182	0.006409	0.017242	0.048218	0.008392	-0.085907	-0.083923	-0.005035	-0.008698
39.513	-0.020905	0.064087	0.12665	0.021667	0.036316	-0.1973	0.015869	0.015259	0.037689	-0.35095	0.017242	-0.056	-0.083466	0.18448	0.038757	-0.52124	0.016632	0.00412	0.34622	0.068665	0.05127	0.005951	0.28656	0.023651	0.001984	0.003204	0.25101	0.005951	-0.15045	-0.051727	-0.005341	-0.004578
39.514	-0.005341	0.065918	0.2034	0.001068	0.035706	-0.18021	0.037231	-0.00473	-0.040894	-0.39642	0.006866	0.2063	-0.19669	-0.041962	0.047302	0.72174	0.001831	-0.023499	0.37399	0.070343	0.061035	0.027924	0.21057	0.061188	-0.003204	0.012054	0.10529	0.009918	-0.12482	-0.10208	-0.00412	-0.014343
39.515	0.001068	0.046997	0.13763	0.007172	0.038605	-0.24139	0.027161	0.002289	-0.13458	-0.80048	0.011139	0.070038	-0.26413	-0.13519	0.058289	-0.14267	-0.039673	-0.029449	0.37369	0.070801	0.050354	0.055389	0.18753	0.099792	0.017395	0.016022	0.013733	0.006866	-0.049438	-0.081787	-0.005188	-0.015106
39.516	0.009003	0.043793	0.089722	0.011139	0.028992	-0.32928	0.027924	-0.006714	-0.063629	-0.72174	0.013885	-0.093689	-0.31204	0.083008	0.047913	-0.84015	-0.058899	-0.042725	0.24612	0.073242	0.057526	0.057678	0.10849	0.085602	0.001984	0.017395	0.036163	0.009308	-0.000458	-0.09079	-0.001526	-0.016174
39.517	0.00412	-0.008087	0.075073	0.006409	0.051422	-0.23239	0.03479	0.000153	-0.032196	-0.32852	0.001831	0.12451	-0.20096	0.21255	0.020752	0.35706	-0.079498	-0.028839	0.16556	0.06897	0.051422	0.044861	-0.018616	-0.008392	-0.002289	0.023651	0.20523	0.010071	-0.039673	-0.10498	-0.00473	-0.011749
39.518	0.005035	-0.009003	0.067444	0.003967	0.12512	-0.12436	0.083008	0.004425	-0.047913	0.33493	0.00412	-0.1889	-0.13626	0.32227	0.014496	0.79987	-0.10117	-0.073547	0.15121	0.016022	0.045166	0.042725	-0.14404	-0.029907	-0.01709	0.01358	0.24689	0.006409	-0.061188	-0.12405	-0.002289	-0.006561
39.519	0.010681	0.022583	0.072174	0.003967	0.092773	-0.085449	0.060577	-0.001373	-0.074768	0.59769	-0.003052	-0.2803	-0.024872	0.578	0.012665	-0.35675	-0.088196	-0.072784	0.34149	0.01297	0.040741	0.014343	-0.27374	-0.04837	-0.004425	0.012817	0.17105	0.00824	-0.026703	-0.079803	-0.004272	-0.007935
39.52	0.00885	0.014648	0.11704	0.015869	0.03067	-0.02182	0.007629	0.002594	-0.067444	0.2829	-0.017548	0.039825	0.21866	0.87189	-0.02533	-0.32822	-0.063019	0.021362	0.5835	0.065155	0.02655	-0.01358	-0.17303	-0.041046	-0.023346	0.016785	0.19714	0.004883	0.052643	-0.023651	-0.006866	-0.006256
39.521	0.00412	-0.019379	0.1799	0.010376	0.028687	-0.008545	-0.086212	0.005188	0.11612	0.31494	-0.006714	0.002136	0.29953	-0.37262	-0.050964	0.52963	-0.050659	0.015259	0.51315	0.12711	0.021362	-0.026398	-0.14847	-0.043945	-0.031738	0.012054	0.20187	0.005035	0.080872	0.035706	0.001221	-0.003662
39.522	0.009613	-0.018616	0.13184	0.008392	0.024567	-0.020905	-0.075378	0.007477	0.14679	0.24582	-0.00885	0.003967	0.36255	-0.82947	-0.079041	0.10407	0.000763	-0.028839	0.30273	0.078888	0.005493	-0.036774	-0.012817	-0.023651	-0.044556	0.004272	0.31586	0.00473	-0.040283	0.045776	-0.00061	0.002747
39.523	0.003662	0.007629	0.19043	-0.001068	0.02243	-0.015411	-0.084991	-0.003204	0.17899	-0.086823	-0.009308	0.021515	0.3595	-0.62836	-0.056458	0.031891	0.018463	-0.039063	0.28931	0.059967	0.002136	-0.042114	0.065918	-0.09201	-0.034943	0.011292	-0.12512	0.007019	0.005341	0.080566	0.000916	-0.00061
39.524	0.00885	-0.032806	0.072632	0.018616	0.022888	-0.016785	-0.092926	0.001984	0.062256	-0.015564	-0.011597	0.018921	0.2652	0.11749	-0.061798	0.15717	0.038605	-0.035095	0.3981	0.09964	0.007324	-0.023651	0.15137	-0.055542	-0.027924	0.014954	-0.37781	0.006409	0.10056	0.12253	0.010986	0.002899
39.525	0.012817	-0.095215	-0.11887	0.012207	0.013885	0.030212	-0.081482	-0.006714	0.018921	0.015717	0.017548	0.005341	0.29755	-0.000916	-0.05249	-0.24765	0.031128	-0.049591	0.22339	0.12772	0.019226	0.006104	0.1741	-0.048065	-0.012512	0.007629	-0.28275	0.009155	-0.47104	0.031738	-0.00412	0
39.526	-0.061646	-0.091095	-0.065613	-0.007172	-0.00351	0.12619	0.016937	0.011292	-0.002899	-0.031738	0.023041	-0.03006	0.14832	-0.31906	-0.063477	-0.03479	0.026093	-0.01297	0.18997	0.11398	0.013123	-0.009003	0.2684	0.019989	-0.020294	0.004883	-0.097504	0.009308	-0.17563	-0.061798	-0.001526	-0.007477
39.527	-0.011749	-0.11093	0.016632	-0.004272	0	0.2121	0.079498	0.018158	-0.036621	-0.045776	-0.000916	-0.055695	-0.070801	-0.31738	-0.044556	-0.14206	0.024109	-0.014801	0.18173	0.019836	0.010986	-0.00885	0.3627	0.009613	-0.00412	0.005188	0.036011	0.007629	0.033875	-0.085907	-0.002136	-0.005798
39.528	-0.050201	-0.11383	0.077667	0.019073	0.021667	0.42343	0.12817	0.015717	-0.016937	0.051575	0.00824	-0.055237	-0.242	-0.005798	-0.028534	0.44311	0.015564	-0.044708	0.79224	-0.049591	0.017853	0.009308	0.28458	-0.011139	-0.001068	0.004425	0.05249	0.005341	-0.08606	-0.0354	-0.003204	-0.00824
39.529	-0.016022	-0.12283	0.048065	0.022736	0.022736	0.60684	0.074615	0.002441	-0.02533	0.20538	-0.002899	-0.027466	-0.098267	-0.11307	0.007172	-0.22446	0.019226	-0.077667	0.53955	-0.064545	0.018921	0.034485	0.21759	-0.011444	-0.000153	0.012817	0.006104	0.005951	0.046692	-0.10239	-0.002899	-0.006714
39.53	0.010376	-0.12024	0.073853	-0.005188	-0.028381	0.6665	0.073395	0.001831	-0.018005	0.14145	-0.009918	-0.018768	0.29587	-0.18127	0.03418	0.013275	0.013275	-0.083618	0.44662	-0.048981	0.017395	0.00885	0.056152	-0.026703	0.008392	0.011444	0.30456	0.004425	0.1059	-0.088501	-0.004883	-0.010376
39.531	0.000305	-0.13214	0.033875	-0.00946	-0.045776	0.46478	0.083771	0.005646	-0.022888	0.007172	0.030975	-0.029144	0.15747	-0.31464	0.036011	0.20203	0.010834	-0.1294	0.23178	-0.17456	0.016479	0.022888	-0.061951	-0.035095	-0.007172	0.003357	0.37689	0.00412	0.215	-0.09964	-0.005188	-0.007324
39.532	0.010376	-0.1355	-0.052338	-0.02182	0.028076	0.19913	0.11551	0.005493	-0.037994	0.065918	0.036621	-0.035706	-0.08728	-0.25314	0.036926	-0.042114	0.002594	-0.066223	-0.10819	-0.20447	0.014343	0.016327	-0.091858	-0.00824	-0.014648	0.002136	0.57419	0.002136	0.14435	-0.073853	-0.001526	-0.023804
